<?xml version="1.0" standalone="no"?>
<!DOCTYPE svg PUBLIC "-//W3C//DTD SVG 20010904//EN"
 "http://www.w3.org/TR/2001/REC-SVG-20010904/DTD/svg10.dtd">
<svg version="1.0" xmlns="http://www.w3.org/2000/svg"
 width="494.000000pt" height="505.000000pt" viewBox="0 0 494.000000 505.000000"
 preserveAspectRatio="xMidYMid meet">

<g transform="translate(0.000000,505.000000) scale(0.100000,-0.100000)"
fill="#000000" stroke="none">
<path d="M2330 3686 c0 -1 9 -21 20 -43 29 -60 107 -125 223 -183 188 -96 318
-190 432 -312 57 -60 63 -65 37 -27 -80 118 -219 230 -472 380 -76 45 -147 96
-182 130 -32 32 -58 56 -58 55z"/>
<path d="M2290 3632 c0 -7 9 -30 20 -52 11 -22 20 -45 20 -52 0 -17 44 -58 61
-58 9 0 10 3 4 8 -19 14 -66 82 -85 124 -11 24 -20 37 -20 30z"/>
<path d="M3200 3067 c5 -15 17 -42 27 -60 9 -17 18 -34 18 -37 3 -15 39 -118
48 -135 6 -11 12 -24 13 -30 1 -5 9 -39 18 -75 37 -151 27 -388 -24 -534 -23
-68 -134 -293 -158 -321 -10 -11 -33 -42 -52 -70 -19 -27 -40 -54 -47 -58 -7
-4 -13 -15 -13 -22 0 -8 -5 -15 -10 -15 -6 0 -23 -12 -39 -27 -15 -16 -53 -48
-84 -72 -32 -24 -55 -46 -52 -49 8 -9 141 86 184 131 237 248 341 492 341 801
0 126 -30 321 -60 391 -5 11 -18 42 -29 68 -11 27 -31 61 -43 76 -13 16 -29
37 -35 47 -11 16 -11 15 -3 -9z"/>
<path d="M3035 2940 c4 -6 9 -32 11 -58 3 -26 7 -52 9 -58 2 -6 -1 -17 -7 -25
-8 -12 -9 -11 -5 2 7 22 -69 55 -89 38 -8 -6 -14 -18 -14 -25 0 -7 -9 -30 -19
-51 -12 -23 -24 -79 -31 -143 -7 -58 -15 -112 -18 -120 -3 -8 -6 -19 -7 -25
-12 -98 -89 -288 -146 -362 -16 -21 -39 -51 -52 -68 -12 -16 -33 -38 -46 -50
-13 -11 -31 -28 -40 -37 -8 -10 -21 -18 -28 -18 -7 0 -12 -3 -10 -8 4 -13 -80
-82 -101 -82 -11 0 -22 -4 -24 -8 -1 -4 -19 -18 -39 -30 -58 -35 -69 -70 -59
-182 10 -125 5 -189 -19 -213 -18 -18 -20 -18 -52 -2 -19 10 -62 44 -96 76
-35 32 -73 64 -85 70 -13 6 4 -13 38 -44 69 -64 117 -145 151 -257 12 -41 22
-68 23 -60 1 33 52 123 96 170 58 62 147 122 284 190 258 129 408 273 506 486
119 257 135 507 48 752 -31 87 -41 91 -14 6 10 -34 24 -96 30 -140 13 -91 10
-231 -4 -199 -5 11 -14 27 -21 35 -6 8 -22 60 -35 115 -29 127 -64 225 -102
286 -16 27 -32 49 -34 49 -3 0 -2 -5 1 -10z m-430 -1300 c16 -6 17 -9 5 -13
-36 -12 -60 -15 -54 -5 4 6 -2 8 -15 4 -57 -16 -66 -18 -60 -12 7 7 80 35 94
35 6 0 19 -4 30 -9z m-65 -49 c-8 -5 -26 -11 -40 -15 -21 -5 -20 -3 5 9 32 15
60 20 35 6z"/>
<path d="M2097 1631 c40 -28 95 -78 123 -112 43 -51 50 -57 50 -36 0 27 -39
89 -73 118 -24 21 -108 62 -147 74 -14 4 7 -16 47 -44z"/>
<path d="M2815 1550 c-3 -5 -1 -10 4 -10 6 0 11 5 11 10 0 6 -2 10 -4 10 -3 0
-8 -4 -11 -10z"/>
<path d="M2593 1419 c-35 -22 -46 -37 -15 -20 22 13 58 40 52 41 -3 0 -20 -10
-37 -21z"/>
</g>
</svg>
